# xmcd
#
# Track frame offsets:
#	150
#	15336
#	27562
#	43049
#	57540
#	68896
#	88257
#	103005
#	119727
#	135663
#	147307
#	150834
#	169168
#	190878
#	217987
#
# Disc length: 3453 seconds
#
# Revision: 0
# Processed by: cddbd v1.4PL0 Copyright (c) Steve Scherf et al.
# Submitted via: EasyCDDAExtractor 4.6.0.1
#
DISCID=d70d7b0f
DTITLE=Colin Buchanan - Land Of The Getaway
DYEAR=2001
DGENRE=Country
TTITLE0=Land Of The Getaway
TTITLE1=Fishing Fraser Island
TTITLE2=Out On The Wallaby
TTITLE3=Top End Man
TTITLE4=Doo Wah Didjeri
TTITLE5=Bishop Of Burrill
TTITLE6=Get Yourself To Tully
TTITLE7=House #163
TTITLE8=The Smiling Man
TTITLE9=Kick The Ball Around
TTITLE10=I Am The Road (intro)
TTITLE11=I Am The Road
TTITLE12=K'gari
TTITLE13=Just Another Day
TTITLE14=Guitar Chord Songbook
EXTD=
EXTT0=
EXTT1=
EXTT2=
EXTT3=
EXTT4=
EXTT5=
EXTT6=
EXTT7=
EXTT8=
EXTT9=
EXTT10=
EXTT11=
EXTT12=
EXTT13=
EXTT14=
PLAYORDER=
